<svg xmlns="http://www.w3.org/2000/svg" xmlns:xlink="http://www.w3.org/1999/xlink" width="100" zoomAndPan="magnify" viewBox="0 0 75 60" height="80" preserveAspectRatio="xMidYMid meet"><defs><g></g></defs><g fill="#ffffff" fill-opacity="1"><g transform="translate(15.486978, 40.500001)"><g><path d="M 28.5625 -20.0625 L 22.296875 0 L 19.859375 0 L 14.78125 -15.296875 C 14.738281 -15.453125 14.695312 -15.613281 14.65625 -15.78125 C 14.613281 -15.945312 14.566406 -16.125 14.515625 -16.3125 C 14.472656 -16.125 14.425781 -15.945312 14.375 -15.78125 C 14.332031 -15.613281 14.285156 -15.453125 14.234375 -15.296875 L 9.125 0 L 6.6875 0 L 0.4375 -20.0625 L 2.6875 -20.0625 C 2.925781 -20.0625 3.128906 -20 3.296875 -19.875 C 3.460938 -19.757812 3.566406 -19.609375 3.609375 -19.421875 L 7.75 -5.46875 C 7.820312 -5.21875 7.882812 -4.945312 7.9375 -4.65625 C 8 -4.375 8.0625 -4.066406 8.125 -3.734375 C 8.1875 -4.066406 8.25 -4.378906 8.3125 -4.671875 C 8.382812 -4.960938 8.460938 -5.226562 8.546875 -5.46875 L 13.265625 -19.421875 C 13.328125 -19.578125 13.4375 -19.722656 13.59375 -19.859375 C 13.757812 -19.992188 13.960938 -20.0625 14.203125 -20.0625 L 14.984375 -20.0625 C 15.222656 -20.0625 15.414062 -20 15.5625 -19.875 C 15.71875 -19.757812 15.832031 -19.609375 15.90625 -19.421875 L 20.609375 -5.46875 C 20.691406 -5.226562 20.765625 -4.96875 20.828125 -4.6875 C 20.898438 -4.40625 20.972656 -4.113281 21.046875 -3.8125 C 21.085938 -4.113281 21.132812 -4.40625 21.1875 -4.6875 C 21.25 -4.96875 21.3125 -5.226562 21.375 -5.46875 L 25.53125 -19.421875 C 25.582031 -19.585938 25.6875 -19.734375 25.84375 -19.859375 C 26.007812 -19.992188 26.210938 -20.0625 26.453125 -20.0625 Z M 28.5625 -20.0625 "></path></g></g></g><g fill="#ffffff" fill-opacity="1"><g transform="translate(44.323032, 40.500001)"><g><path d="M 12.828125 -16.921875 C 12.742188 -16.785156 12.648438 -16.679688 12.546875 -16.609375 C 12.453125 -16.535156 12.332031 -16.5 12.1875 -16.5 C 12.03125 -16.5 11.84375 -16.578125 11.625 -16.734375 C 11.414062 -16.898438 11.148438 -17.078125 10.828125 -17.265625 C 10.503906 -17.460938 10.113281 -17.640625 9.65625 -17.796875 C 9.207031 -17.953125 8.660156 -18.03125 8.015625 -18.03125 C 7.410156 -18.03125 6.875 -17.945312 6.40625 -17.78125 C 5.945312 -17.625 5.5625 -17.40625 5.25 -17.125 C 4.9375 -16.84375 4.703125 -16.507812 4.546875 -16.125 C 4.390625 -15.75 4.3125 -15.34375 4.3125 -14.90625 C 4.3125 -14.34375 4.445312 -13.878906 4.71875 -13.515625 C 5 -13.148438 5.363281 -12.835938 5.8125 -12.578125 C 6.269531 -12.316406 6.785156 -12.085938 7.359375 -11.890625 C 7.929688 -11.703125 8.519531 -11.503906 9.125 -11.296875 C 9.726562 -11.085938 10.316406 -10.851562 10.890625 -10.59375 C 11.460938 -10.34375 11.972656 -10.019531 12.421875 -9.625 C 12.878906 -9.238281 13.242188 -8.757812 13.515625 -8.1875 C 13.796875 -7.625 13.9375 -6.925781 13.9375 -6.09375 C 13.9375 -5.21875 13.785156 -4.394531 13.484375 -3.625 C 13.179688 -2.851562 12.742188 -2.179688 12.171875 -1.609375 C 11.597656 -1.035156 10.894531 -0.585938 10.0625 -0.265625 C 9.226562 0.0546875 8.273438 0.21875 7.203125 0.21875 C 5.898438 0.21875 4.71875 -0.015625 3.65625 -0.484375 C 2.59375 -0.953125 1.679688 -1.585938 0.921875 -2.390625 L 1.703125 -3.6875 C 1.773438 -3.789062 1.863281 -3.875 1.96875 -3.9375 C 2.082031 -4.007812 2.207031 -4.046875 2.34375 -4.046875 C 2.457031 -4.046875 2.59375 -3.992188 2.75 -3.890625 C 2.90625 -3.796875 3.078125 -3.671875 3.265625 -3.515625 C 3.460938 -3.367188 3.6875 -3.207031 3.9375 -3.03125 C 4.195312 -2.851562 4.488281 -2.691406 4.8125 -2.546875 C 5.132812 -2.398438 5.5 -2.273438 5.90625 -2.171875 C 6.320312 -2.078125 6.785156 -2.03125 7.296875 -2.03125 C 7.941406 -2.03125 8.515625 -2.117188 9.015625 -2.296875 C 9.515625 -2.472656 9.941406 -2.722656 10.296875 -3.046875 C 10.648438 -3.367188 10.914062 -3.753906 11.09375 -4.203125 C 11.28125 -4.648438 11.375 -5.148438 11.375 -5.703125 C 11.375 -6.304688 11.238281 -6.800781 10.96875 -7.1875 C 10.695312 -7.570312 10.335938 -7.894531 9.890625 -8.15625 C 9.441406 -8.414062 8.925781 -8.632812 8.34375 -8.8125 C 7.757812 -9 7.171875 -9.1875 6.578125 -9.375 C 5.984375 -9.570312 5.394531 -9.796875 4.8125 -10.046875 C 4.238281 -10.304688 3.726562 -10.632812 3.28125 -11.03125 C 2.832031 -11.4375 2.46875 -11.9375 2.1875 -12.53125 C 1.914062 -13.132812 1.78125 -13.878906 1.78125 -14.765625 C 1.78125 -15.472656 1.914062 -16.160156 2.1875 -16.828125 C 2.46875 -17.492188 2.867188 -18.082031 3.390625 -18.59375 C 3.921875 -19.101562 4.570312 -19.507812 5.34375 -19.8125 C 6.113281 -20.125 7 -20.28125 8 -20.28125 C 9.113281 -20.28125 10.128906 -20.101562 11.046875 -19.75 C 11.972656 -19.394531 12.785156 -18.882812 13.484375 -18.21875 Z M 12.828125 -16.921875 "></path></g></g></g><path stroke-linecap="butt" transform="matrix(0.75, 0, 0, 0.75, 15.486978, 14.85)" fill="none" stroke-linejoin="miter" d="M 0.00173821 2.002083 L 58.699657 2.002083 " stroke="#ffffff" stroke-width="4" stroke-opacity="1" stroke-miterlimit="4"></path><path stroke-linecap="butt" transform="matrix(0.75, 0, 0, 0.75, 15.486978, 43.700047)" fill="none" stroke-linejoin="miter" d="M 0.00173821 1.998895 L 58.699657 1.998895 " stroke="#ffffff" stroke-width="4" stroke-opacity="1" stroke-miterlimit="4"></path></svg>